<?xml version="1.0" encoding="utf-8"?>
<!-- Generator: Adobe Illustrator 23.0.2, SVG Export Plug-In . SVG Version: 6.00 Build 0)  -->
<svg version="1.1" id="Ebene_1" xmlns="http://www.w3.org/2000/svg" xmlns:xlink="http://www.w3.org/1999/xlink" x="0px" y="0px"
	 viewBox="0 0 245 242" style="enable-background:new 0 0 245 242;" xml:space="preserve">
<style type="text/css">
	.st0{fill:none;}
	.st1{fill:#FFCC00;}
	.st2{fill:#669933;}
	.st3{fill:#0099CC;}
	.st4{fill:#CC0000;}
	.st5{fill:#FF9900;}
</style>
<title>Zeichenfläche 1</title>
<path class="st0" d="M26.1,54.2v-0.4V54.2L26.1,54.2z"/>
<path class="st1" d="M157.6,177.2c-3.5-9.2-7.3-19.3-11.7-30.7l-12.5-6.2l-1.1-0.5l-0.8-0.4l-3.7-1.8l-4.2,3.7
	c1.7,3.2,3.7,6.7,5.7,10.4l1.5,2.7c13.9,25.2,25.1,44.9,33.3,58.5c5.3,8.9,9.4,15.2,12,18.5c-0.8-3.7-2.6-9.8-5.2-17.5
	C167.7,204.5,163.2,192.1,157.6,177.2z"/>
<path class="st1" d="M69.2,12.8c-0.8,2-1.2,4.2-1.2,6.4c0,11.1,7.1,31.2,20.6,58l0.9,1.8l0.3,0.5c7.4,4.6,15.2,9.8,23.8,15.6
	l0.9,0.6l1,0.7l7,4.8l4.2-4.9c-3.3-8.8-6.4-16.6-9.4-23.9c-0.5-1.3-1-2.5-1.6-3.8C107,48.2,99.1,32.7,92.1,22.7
	c-6.2-9-12-13.9-16.4-13.9h-0.1c-1,0-2,0.2-2.9,0.7l0,0h-0.1C71,10.1,69.8,11.3,69.2,12.8z"/>
<path class="st2" d="M26,54.6c-4.2,0-6.7,1.2-8.1,3.8l0,0v0.1c-0.7,1-1,2.2-1,3.4c-0.1,4.5,4.6,10.8,13.3,17.7
	c7.5,6.1,18.1,13,31.6,20.6c3.2,1.8,6.8,3.8,10.5,5.7c8.7-0.4,18-0.7,28.5-0.8h0.9h1.4c3.4,0,6.5-0.1,9.2-0.1h2.1h5.2l0.6-0.8l0,0
	l-5.7-3.9l-1-0.7l-0.9-0.6c-8-5.4-15.1-10.2-21.9-14.4l-3.3-2.1l-0.1-0.1c-1.6-1-3.2-2-4.9-3C64,68,39.3,54.6,26,54.6l0.1-0.4l0,0
	L26,54.6z"/>
<path class="st2" d="M218.7,171.8c-7.6-5.7-18.5-13.4-32.2-22.9c-9-6.2-19.1-13.1-29.9-20.3l-13.8,2.1l-1.2,0.2l-0.9,0.1l-2.6,0.4
	l-2.1,0.3l-1.9,0.3l-0.9,0.8l-2.3,2.1l1.9,1l0.9,0.4l1,0.5l11.2,5.5l1.4,0.7l1.3,0.6c27.1,13.3,62.8,30.4,78.1,36
	c1.1,0.4,2.2,0.8,3.2,1.1l-1-0.9C226.6,177.9,223.1,175.2,218.7,171.8z"/>
<path class="st3" d="M245,108.6c-2.1-0.3-5.1-0.5-8.8-0.7c-7.4-0.4-17.9-0.6-31.1-0.6h-0.7c-11.8,0-26,0.1-42.1,0.4
	c-4.3,3.8-8.9,7.8-13.9,12.2l-0.6,0.5l-1.1,0.9l-5.4,4.6l-1.3,1l-0.4,0.4l-0.3,0.2h0.2l2.1-0.3l12.3-1.9l1.3-0.2l1.7-0.3
	c10.3-1.6,19.9-3.2,28.6-4.6C207.7,116.5,235.1,111.7,245,108.6z"/>
<path class="st3" d="M116.3,108.7h-5l-7.2,0.1h-2.4c-9.5,0.1-18,0.3-26.2,0.7l-3.2,0.2h-0.9c-17.2,1-31.5,2.4-42.5,4.6
	c-11.4,2.2-19.8,5.1-24.1,8.4c-2.6,2-3.8,4.1-3.8,6.4c0,0.3,0,0.6,0.1,0.9v0.1c0.1,1.8,0.9,3.5,2.2,4.6c1.9,1.6,4.1,2.8,6.5,3.4
	c5.4,1.7,13.3,2.6,23.4,2.6c15.2,0,34.8-1.9,60.1-5.7c3.4-3.9,13.9-15.8,13.9-15.8l1.3-1.4l0.5-0.6l0.7-0.7l1-1.1
	C110.7,115.2,115,110.2,116.3,108.7z"/>
<path class="st4" d="M79.8,174.4c8-6.8,16.8-14.4,27-23.3l0.9-0.8l1.4-1.2l10.3-9.1l0.8-0.7l0.8-0.7l4.1-3.6l1.7-1.5l0.3-0.3l2.3-2
	l0.6-0.5l0.7-0.6l1.6-1.4l1-0.9l0.6-0.6l2.1-1.8l0.6-0.5l0.4-0.3l0.8-0.7l0.9-0.8l0.7-0.6l4.4-3.7l0.5-0.4l1.1-1
	c4.4-3.8,8.7-7.6,12.7-11.1l0.4-0.3l2-1.8c18.7-16.8,32.6-30.9,41.1-42.1c7-9.1,10.7-16.5,10.7-21.4c0.1-1.9-0.7-3.8-2.1-5.1l0,0
	l-0.1-0.1c-1.3-1.4-3.2-2.2-5.2-2.1h-0.1c-4.9,0-12.3,3.7-21.3,10.7c-7.7,6-16.9,14.4-27.3,25.1c-2,2.1-4,4.2-6.2,6.6l-2.8,3
	c-5.2,5.7-10.7,11.8-16.7,18.8l-0.8,0.9l-0.7,0.8l-4.1,4.8l-1.3,1.6l-0.4,0.5l-0.2,0.3l-1.6,1.8l-0.4,0.5c-2.3,2.7-4.1,4.8-5.4,6.3
	L114,117l-0.1,0.1l-1.2,1.4l-1.1,1.2l-0.1,0.1l-0.1,0.2l-0.8,0.9l-0.7,0.8l-2.6,2.9l-1.4,1.6c-2.5,2.8-5.3,6-8.3,9.4l-0.8,0.9
	l-1.4,1.6c-19.8,22.6-35,40.6-45.2,53.2c-6.4,7.9-10.9,13.8-13.1,17.4c0.5-0.3,1.1-0.7,1.7-1.1c2.7-1.8,6.3-4.5,10.7-8
	C57,193.6,67.2,185.1,79.8,174.4z"/>
<path class="st5" d="M131.1,15.9c-3.5,8.8-6.6,21.2-9.4,37c-0.8,4.7-1.6,9.8-2.4,15.2c3.2,7.6,6.5,15.9,10.1,25.2
	c6.2-7.2,11.9-13.6,17.4-19.4c4.7-21.9,7.1-39.2,7.1-51.5c0-6.7-0.7-12-2.1-15.6s-3.4-5.6-6.2-6l0,0h-0.1c-0.5-0.1-1-0.1-1.5-0.1
	c-2.2,0-4.4,1.2-6.6,3.8C134.7,7.9,132.6,11.8,131.1,15.9z"/>
<path class="st5" d="M117.9,191c2.8-10.6,5.8-22.7,9.1-35.9c-2.2-4.1-4.3-7.9-6.2-11.4c-3.2,2.8-6.8,6-10.7,9.4
	c-3.2,30.3-7.1,69.7-7.1,85.8c0,1.1,0,2.1,0.1,3l0.3-0.7c1.1-2.7,2.5-6.8,4.1-12.1C110.2,220,113.7,207.2,117.9,191z"/>
</svg>
