<?xml version="1.0" encoding="utf-8"?>
<svg id="Ebene_1" data-name="Ebene 1" xmlns="http://www.w3.org/2000/svg" viewBox="0 0 1024 242"><defs><style>.cls-1{fill:none;}.cls-2{fill:#fc0;}.cls-3{fill:#693;}.cls-4{fill:#09c;}.cls-5{fill:#c00;}.cls-6{fill:#f90;}</style></defs><title>Zeichenfläche 1</title><path class="cls-1" d="M26.06,54.16v-.41l0,.4Z"/><path class="cls-2" d="M157.61,177.17c-3.46-9.25-7.28-19.28-11.68-30.66l-12.54-6.18-1.07-.53-.83-.41-3.71-1.84-4.21,3.71c1.74,3.18,3.66,6.67,5.71,10.4l1.47,2.67c13.9,25.2,25.11,44.88,33.32,58.52,5.33,8.85,9.43,15.19,12,18.54-.82-3.66-2.64-9.75-5.25-17.46C167.66,204.49,163.21,192.13,157.61,177.17Z"/><path class="cls-2" d="M69.15,12.83A15.1,15.1,0,0,0,68,19.26c0,11.12,7.11,31.17,20.64,58l.92,1.82.26.52c7.37,4.63,15.16,9.75,23.82,15.64l.94.64,1,.69,7,4.8,4.17-4.87c-3.33-8.81-6.43-16.64-9.45-23.93q-.78-1.88-1.58-3.77C107,48.24,99.07,32.72,92.06,22.66c-6.19-9-12-13.92-16.37-13.92h-.11a6.18,6.18,0,0,0-2.91.72h0l-.1,0A6.36,6.36,0,0,0,69.15,12.83Z"/><path class="cls-3" d="M26,54.56c-4.16,0-6.73,1.23-8.08,3.79h0l0,.09a6.22,6.22,0,0,0-1,3.42c-.07,4.46,4.64,10.76,13.26,17.73,7.46,6.1,18.09,13,31.58,20.63,3.25,1.83,6.78,3.75,10.48,5.73,8.71-.43,18-.71,28.49-.85h.91l1.44,0c3.36,0,6.47-.06,9.2-.07h2.08l5.23,0,.64-.75,0,0-5.73-3.95-1-.7-.92-.62c-8-5.43-15.11-10.16-21.86-14.45l-3.32-2.1-.13-.08c-1.62-1-3.25-2-4.9-3C64,68,39.35,54.56,26.06,54.56v-.4h0Z"/><path class="cls-3" d="M218.66,171.83c-7.62-5.72-18.46-13.42-32.21-22.91-9-6.23-19.12-13.07-29.94-20.34l-13.81,2.13-1.25.19-.85.13-2.56.39-2.07.31-1.92.29-.94.82-2.34,2.07,1.95,1,.87.43,1,.51,11.21,5.53,1.43.7,1.31.64c27.15,13.31,62.75,30.37,78.14,36,1.14.43,2.22.8,3.17,1.1l-1-.89C226.57,177.92,223.13,175.19,218.66,171.83Z"/><path class="cls-4" d="M245,108.55c-2.11-.28-5.08-.52-8.84-.71-7.39-.38-17.87-.57-31.13-.57h-.66c-11.82,0-26,.14-42.14.43-4.3,3.84-8.85,7.83-13.91,12.18l-.55.47-1.08.93-5.38,4.59L140,126.92l-.43.36-.27.23.25,0,2.1-.32L154,125.25l1.32-.2,1.7-.26c10.26-1.6,19.89-3.15,28.63-4.6C207.68,116.54,235.09,111.68,245,108.55Z"/><path class="cls-4" d="M116.34,108.66h-5l-7.19.06-2.36,0c-9.47.11-18,.34-26.2.7l-3.15.15-.93,0C54.3,110.54,40,112,29,114.12c-11.42,2.15-19.76,5.07-24.13,8.45-2.58,2-3.83,4.07-3.84,6.37a6.84,6.84,0,0,0,.06.87v.13a6.45,6.45,0,0,0,2.23,4.62A17.13,17.13,0,0,0,9.83,138c5.44,1.73,13.32,2.61,23.45,2.61,15.19,0,34.83-1.87,60.1-5.72,3.4-3.89,13.88-15.8,13.88-15.8l1.26-1.43.5-.56.65-.74,1-1.13S115,110.25,116.34,108.66Z"/><path class="cls-5" d="M79.81,174.41c8-6.83,16.83-14.45,27-23.3l.87-.76,1.43-1.25L119.43,140l.78-.68.82-.72,4.11-3.62,1.68-1.48.31-.28,2.26-2,.59-.53.7-.62,1.6-1.39,1-.87.64-.55,2.07-1.76.61-.52.38-.33.76-.65.95-.8.72-.61,4.38-3.74.49-.42,1.14-1c4.44-3.81,8.72-7.55,12.72-11.11l.4-.35,2-1.76c18.71-16.78,32.55-30.94,41.13-42.09,7-9.09,10.73-16.5,10.69-21.41a6.58,6.58,0,0,0-2.1-5.14l0,0-.06-.06A6.61,6.61,0,0,0,205,33.4h-.07c-4.92,0-12.3,3.7-21.34,10.69-7.72,5.95-16.89,14.4-27.26,25.14-2,2.05-4,4.21-6.25,6.6l-2.77,3c-5.23,5.68-10.69,11.82-16.68,18.77l-.82.95-.72.83L125,104.14l-1.35,1.58-.44.52-.23.27-1.56,1.84-.4.48c-2.3,2.7-4.11,4.83-5.37,6.26L114,117l-.13.14-1.25,1.42-1.09,1.24-.08.09-.14.16-.76.86-.68.77-2.59,2.93-1.42,1.62c-2.48,2.81-5.26,6-8.27,9.42l-.75.85-1.37,1.57c-19.78,22.64-35,40.56-45.25,53.24-6.39,7.9-10.86,13.83-13.12,17.37q.78-.49,1.69-1.12c2.69-1.84,6.27-4.53,10.66-8C57,193.58,67.24,185.12,79.81,174.41Z"/><path class="cls-6" d="M131.15,15.88c-3.48,8.75-6.63,21.2-9.38,37-.82,4.71-1.62,9.82-2.37,15.19,3.21,7.62,6.51,15.89,10.06,25.23,6.25-7.2,11.95-13.57,17.39-19.42,4.68-21.89,7.06-39.2,7.05-51.45,0-6.72-.71-12-2.11-15.64s-3.41-5.59-6.2-6h0l-.08,0A6.54,6.54,0,0,0,144,.66c-2.25,0-4.42,1.25-6.61,3.81A41.6,41.6,0,0,0,131.15,15.88Z"/><path class="cls-6" d="M117.92,191c2.77-10.65,5.83-22.72,9.07-35.86-2.24-4.07-4.35-7.9-6.25-11.37-3.2,2.81-6.81,6-10.71,9.39-3.25,30.34-7.1,69.72-7.1,85.79,0,1.13,0,2.14.06,3l.28-.69c1.09-2.74,2.46-6.81,4.08-12.1C110.15,220,113.7,207.2,117.92,191Z"/><path d="M281.06,30.33h26.6V79.44h.82a29.94,29.94,0,0,1,11-7.78,37.91,37.91,0,0,1,14.94-2.87q18.42,0,28.14,12.59t9.72,38.37q0,27.63-13.61,42T321.38,176a123.56,123.56,0,0,1-23.94-2.15q-10.85-2.15-16.37-4.81Zm45.64,61q-7.37,0-12,3.79A23.7,23.7,0,0,0,307.67,106v44.61a24.32,24.32,0,0,0,7.06,2.25,50.47,50.47,0,0,0,8.08.61q10.84,0,16.48-7.88t5.63-25.07Q344.91,91.31,326.7,91.31Z"/><path d="M390.88,77.19a87.4,87.4,0,0,1,19.44-5.83,125.38,125.38,0,0,1,23.53-2.15q10.64,0,17.8,2.56a25.66,25.66,0,0,1,17.29,18.52A57.48,57.48,0,0,1,470.69,105q0,9-.61,18.11T469.36,141q-.1,8.8.51,17.09a64.29,64.29,0,0,0,3.07,15.66H451.25l-4.3-14.12h-1a36.44,36.44,0,0,1-11.36,10.95q-7.27,4.61-18.73,4.6A36.46,36.46,0,0,1,403,173.07a27.55,27.55,0,0,1-16.17-15.55,31.47,31.47,0,0,1-2.25-12.18q0-9.41,4.2-15.86A30.31,30.31,0,0,1,400.8,119a60,60,0,0,1,18.83-5.53,133.52,133.52,0,0,1,24.46-.92q1.43-11.46-1.64-16.48t-13.71-5a93.49,93.49,0,0,0-16.88,1.64A61.87,61.87,0,0,0,397.22,97Zm33.76,76.13q8,0,12.69-3.58a25,25,0,0,0,7-7.67v-13.3a73.2,73.2,0,0,0-12.18-.2,44.53,44.53,0,0,0-10.33,1.84,17.42,17.42,0,0,0-7.16,4.09,9.16,9.16,0,0,0-2.66,6.75q0,5.73,3.38,8.9T424.64,153.32Z"/><path d="M535.33,145.34a7.64,7.64,0,0,0-3.48-6.55,42,42,0,0,0-8.59-4.5q-5.12-2-11.26-4.19a42.14,42.14,0,0,1-11.26-5.94,32.47,32.47,0,0,1-8.59-9.62q-3.48-5.83-3.48-15,0-15.14,9-23.13t26-8a83.61,83.61,0,0,1,21.08,2.46,61.08,61.08,0,0,1,14.73,5.53l-5.93,19.24q-4.71-1.84-11.87-3.89a52.75,52.75,0,0,0-14.53-2q-11.87,0-11.87,9.21a6.8,6.8,0,0,0,3.48,5.94,45.68,45.68,0,0,0,8.6,4.19q5.11,1.95,11.26,4.2A49,49,0,0,1,549.86,119a30.55,30.55,0,0,1,8.6,9.31q3.48,5.73,3.48,14.73,0,15.55-9.93,24.45t-29.78,8.9a72.73,72.73,0,0,1-20.36-2.76,62.5,62.5,0,0,1-15.45-6.45l7.37-19.85a70.61,70.61,0,0,0,12.48,5.22,50.66,50.66,0,0,0,16,2.56q5.93,0,9.52-2.25T535.33,145.34Z"/><path d="M661.72,164.78q-6.14,4.91-16.68,8.29a73,73,0,0,1-22.41,3.38q-24.77,0-36.22-14.43T575,122.42q0-27,12.89-40.52t36.22-13.51a56.43,56.43,0,0,1,15.14,2,35.28,35.28,0,0,1,13.1,6.75,33.32,33.32,0,0,1,9.21,12.69q3.48,8,3.48,19.85a89.5,89.5,0,0,1-.51,9.21q-.51,4.91-1.53,10.23H601.56q.61,12.89,6.65,19.44t19.55,6.55a43.55,43.55,0,0,0,25.17-7.78Zm-38.06-75.1q-10.44,0-15.45,6.24t-6,16.68h38.06q.81-11.05-3.38-17T623.66,89.67Z"/><path d="M756.57,167.23a44.39,44.39,0,0,1-14.84,6.86,68.37,68.37,0,0,1-17.91,2.35q-12.28,0-20.77-3.89a35.37,35.37,0,0,1-13.81-10.95,45.13,45.13,0,0,1-7.67-17.09,96.74,96.74,0,0,1-2.35-22.1q0-26,11.67-40t34-14q11.25,0,18.11,1.84a61.52,61.52,0,0,1,12.38,4.71L749,96.63a53.9,53.9,0,0,0-9.31-3.48,41.12,41.12,0,0,0-10.54-1.23q-11.05,0-16.78,7.26t-5.73,23.23a47.94,47.94,0,0,0,1.43,12.07,29.48,29.48,0,0,0,4.3,9.62,20.12,20.12,0,0,0,7.47,6.45,23.31,23.31,0,0,0,10.74,2.35A33.23,33.23,0,0,0,742,151.17a40.19,40.19,0,0,0,8.39-4.2Z"/><path d="M765.31,122.42q0-26,12.69-40t35.61-14q12.28,0,21.28,3.89a39.77,39.77,0,0,1,14.94,10.95,46.83,46.83,0,0,1,8.9,17.09,77.75,77.75,0,0,1,3,22.1q0,26-12.59,40t-35.51,14q-12.28,0-21.28-3.89a40.59,40.59,0,0,1-15-10.95,45.9,45.9,0,0,1-9-17.09A77.64,77.64,0,0,1,765.31,122.42Zm27.42,0A59.52,59.52,0,0,0,794,134.9a34.75,34.75,0,0,0,3.68,10,17.76,17.76,0,0,0,6.45,6.65,18.4,18.4,0,0,0,9.52,2.35q10.44,0,15.55-7.57t5.12-23.94q0-14.12-4.71-22.82t-16-8.7q-9.82,0-15.35,7.37T792.73,122.42Z"/><path d="M938.28,173.58V117.92q0-14.12-2.66-20.05t-11.05-5.94q-7,0-11.26,3.78a24.08,24.08,0,0,0-6.55,9.72v68.15h-26.6V71.26h20.67l3.07,13.51h.82a46.9,46.9,0,0,1,12-11.46q7.26-4.91,18.73-4.91,9.82,0,16.07,4t9.72,13.4A37.16,37.16,0,0,1,973.27,73.1q7.37-4.7,17.8-4.71a46,46,0,0,1,14.63,2,20.16,20.16,0,0,1,9.83,7.06q3.78,5,5.63,13.4a101.79,101.79,0,0,1,1.84,21.28v61.39H996.4V116.07q0-12.07-2.56-18.11t-11.36-6q-7.16,0-11.36,3.89a23.38,23.38,0,0,0-6.24,10.64v67.12Z"/></svg>