<svg xmlns="http://www.w3.org/2000/svg" xml:space="preserve" id="_x32_" version="1.1" viewBox="0 0 512 512"><style>.st0{fill:#000}</style><path d="M56.024 169.596c5.588 12.37 13.008 20.48 18.015 26.972 2.78 3.566 4.856 6.624 6.22 9.744 1.355 3.127 2.175 6.354 2.199 11.044.011 5.915-1.502 14.264-5.908 26.071-11.5 29.651-16.76 57.093-16.76 82.117-.011 25.863 5.646 49.108 15.608 69.21 3.131 6.331 6.77 12.262 10.69 17.953 3.096-1.625 6.647-3.32 10.787-4.821 3.234-1.186 6.647-2.095 10.135-2.873-4.664-6.169-8.922-12.677-12.422-19.755-8.477-17.136-13.378-36.946-13.386-59.713 0-22.051 4.637-46.889 15.361-74.508l.012-.046.039-.092c3.947-10.613 6.134-19.532 6.893-27.526h60.514c-4.418 8.634-7.995 17.576-8.042 27.634 0 1.494.085 3.011.266 4.544.674 5.792 2.546 11.422 5.63 16.436 4.613 7.572 11.876 13.579 20.879 17.468 1.441.632 3 1.117 4.529 1.64-42.726 44.617-14.918 117.339 70.484 118.926 61.061 1.124 136.747-55.847 146.067-115.182h32.002c-3.297 16.937-11.746 49.669-31.47 81.633a201.318 201.318 0 0 1-19.293 26.302c8.88.1 17.152 1.24 24.8 3.436 14.626-19.216 24.993-39.388 32.256-57.533 14.001-35.014 16.836-62.802 16.913-63.464l1.201-11.784H205.841c-8.799-.993-15.231-3.388-19.486-6.292-2.842-1.918-4.81-4.036-6.224-6.324-1.401-2.303-2.272-4.829-2.622-7.771a16.94 16.94 0 0 1-.119-2.033c-.047-4.583 1.871-10.56 5.714-17.938 5.672-11.068 15.192-24.677 23.429-41.552 8.226-16.882 15.076-37.354 15.062-62.116-.008-47.967-38.872-86.831-86.84-86.838a87.409 87.409 0 0 0-61.161 24.923c-15.762 15.396-25.69 36.885-25.686 60.63l.012 1.479c.007.355.05.647.058 1.009-10.206 9.404-23.206 19.817-33.365 22.582-16.219 4.424 9.013 14.906 41.411 16.408zM488.956 430.12c-4.714 1.71-8.619 3.828-11.938 5.776-5.007 2.973-8.664 5.391-12.693 7.032-4.036 1.634-8.642 2.82-16.328 2.85-6.824-.016-11.245-.986-14.965-2.319-2.788-1.016-5.26-2.311-8.032-3.943-4.136-2.403-8.989-5.73-15.681-8.511-6.693-2.78-15.019-4.659-25.34-4.628-9.173-.016-16.759 1.44-23.044 3.743-4.705 1.71-8.611 3.828-11.93 5.776-5.006 2.973-8.672 5.391-12.692 7.032-4.036 1.634-8.649 2.82-16.328 2.85-6.824-.016-11.238-.986-14.957-2.319-2.788-1.016-5.252-2.311-8.026-3.943-4.136-2.403-8.98-5.73-15.673-8.511-6.693-2.78-15.011-4.659-25.332-4.628-9.173-.016-16.759 1.44-23.044 3.743-4.706 1.71-8.611 3.828-11.93 5.776-5.006 2.973-8.672 5.391-12.693 7.032-4.036 1.634-8.649 2.82-16.336 2.85-6.824-.016-11.237-.986-14.949-2.319-2.796-1.016-5.26-2.311-8.04-3.943-4.128-2.403-8.973-5.73-15.674-8.511-6.686-2.78-15.011-4.659-25.331-4.628-9.173-.016-16.76 1.44-23.044 3.743-4.706 1.71-8.611 3.828-11.93 5.776-5.006 2.973-8.672 5.391-12.693 7.032-4.036 1.634-8.649 2.82-16.328 2.85-6.824-.016-11.237-.986-14.957-2.319-2.796-1.016-5.261-2.311-8.033-3.943-4.136-2.403-8.981-5.73-15.681-8.511-6.693-2.78-15.019-4.659-25.332-4.628v23.66c6.824.016 11.237.986 14.957 2.318 2.788 1.018 5.26 2.311 8.033 3.943 4.136 2.396 8.98 5.731 15.681 8.511 6.686 2.781 15.011 4.66 25.332 4.63 9.181.015 16.759-1.441 23.044-3.743 4.706-1.718 8.611-3.828 11.93-5.777 5.007-2.973 8.672-5.392 12.693-7.032 4.036-1.632 8.648-2.819 16.328-2.85 6.824.016 11.237.986 14.957 2.318 2.788 1.018 5.26 2.311 8.032 3.943 4.136 2.396 8.981 5.731 15.674 8.511 6.693 2.781 15.019 4.66 25.331 4.63 9.181.015 16.768-1.441 23.052-3.743 4.706-1.71 8.611-3.828 11.93-5.777 5.006-2.973 8.672-5.392 12.693-7.032 4.036-1.632 8.649-2.819 16.328-2.85 6.824.016 11.237.986 14.949 2.318 2.788 1.018 5.261 2.311 8.033 3.943 4.136 2.396 8.981 5.731 15.674 8.511 6.686 2.781 15.012 4.66 25.332 4.63 9.172.015 16.76-1.441 23.044-3.743 4.706-1.718 8.611-3.828 11.93-5.777 5.006-2.973 8.665-5.392 12.693-7.032 4.036-1.632 8.65-2.819 16.328-2.85 6.824.016 11.245.986 14.965 2.318 2.788 1.018 5.26 2.311 8.033 3.943 4.136 2.403 8.98 5.739 15.681 8.511 6.693 2.781 15.019 4.66 25.339 4.63 9.181.015 16.76-1.441 23.044-3.743 4.706-1.718 8.618-3.828 11.93-5.777 5.014-2.973 8.672-5.392 12.7-7.032 4.028-1.632 8.642-2.819 16.328-2.85v-23.66c-9.18-.015-16.759 1.441-23.044 3.743z" class="st0"/></svg>